<mxfile host="Electron" modified="2023-09-06T14:19:48.553Z" agent="Mozilla/5.0 (Macintosh; Intel Mac OS X 10_15_7) AppleWebKit/537.36 (KHTML, like Gecko) draw.io/21.5.0 Chrome/112.0.5615.204 Electron/24.5.1 Safari/537.36" etag="mmG5sELYvVfUgSq0r_O3" version="21.5.0" type="device">
  <diagram name="Page-1" id="IjmnMNK2up9I8Y3x0rl3">
    <mxGraphModel dx="2868" dy="2656" grid="0" gridSize="10" guides="1" tooltips="1" connect="1" arrows="1" fold="1" page="0" pageScale="1" pageWidth="3300" pageHeight="4681" math="0" shadow="0">
      <root>
        <mxCell id="0" />
        <mxCell id="1" parent="0" />
        <mxCell id="gwvTbU8_C_X5oCHiBsos-35" value="" style="rounded=1;whiteSpace=wrap;html=1;sketch=1;curveFitting=1;jiggle=2;fillColor=#f8cecc;strokeColor=#b85450;opacity=80;" vertex="1" parent="1">
          <mxGeometry x="549" y="-259" width="311" height="1218" as="geometry" />
        </mxCell>
        <mxCell id="gwvTbU8_C_X5oCHiBsos-93" style="edgeStyle=orthogonalEdgeStyle;rounded=0;orthogonalLoop=1;jettySize=auto;html=1;strokeWidth=2;flowAnimation=1;fillColor=#e1d5e7;strokeColor=#9673a6;endArrow=classic;endFill=1;" edge="1" parent="1" source="TLgU0xt5SLczzOOira7B-34" target="gwvTbU8_C_X5oCHiBsos-80">
          <mxGeometry relative="1" as="geometry">
            <Array as="points">
              <mxPoint x="947" y="423" />
              <mxPoint x="947" y="525" />
            </Array>
          </mxGeometry>
        </mxCell>
        <mxCell id="gwvTbU8_C_X5oCHiBsos-102" style="edgeStyle=orthogonalEdgeStyle;rounded=0;orthogonalLoop=1;jettySize=auto;html=1;entryX=0.094;entryY=0.011;entryDx=0;entryDy=0;entryPerimeter=0;strokeWidth=2;flowAnimation=1;fillColor=#e1d5e7;strokeColor=#9673a6;endArrow=classic;endFill=1;" edge="1" parent="1" source="TLgU0xt5SLczzOOira7B-34" target="gwvTbU8_C_X5oCHiBsos-87">
          <mxGeometry relative="1" as="geometry">
            <Array as="points">
              <mxPoint x="956" y="192" />
              <mxPoint x="956" y="117" />
            </Array>
          </mxGeometry>
        </mxCell>
        <mxCell id="TLgU0xt5SLczzOOira7B-34" value="" style="rounded=1;whiteSpace=wrap;html=1;sketch=1;curveFitting=1;jiggle=2;fillColor=#b1ddf0;strokeColor=#10739e;opacity=50;" parent="1" vertex="1">
          <mxGeometry x="-3" y="135.94" width="928" height="369.06" as="geometry" />
        </mxCell>
        <mxCell id="TLgU0xt5SLczzOOira7B-37" style="edgeStyle=orthogonalEdgeStyle;rounded=0;orthogonalLoop=1;jettySize=auto;html=1;entryX=0.5;entryY=0;entryDx=0;entryDy=0;strokeWidth=2;dashed=1;fillColor=#d5e8d4;strokeColor=#82b366;flowAnimation=1;" parent="1" source="TLgU0xt5SLczzOOira7B-34" target="TLgU0xt5SLczzOOira7B-14" edge="1">
          <mxGeometry relative="1" as="geometry">
            <Array as="points">
              <mxPoint x="438" y="103" />
              <mxPoint x="-124" y="103" />
            </Array>
          </mxGeometry>
        </mxCell>
        <mxCell id="TLgU0xt5SLczzOOira7B-8" value="" style="rounded=1;whiteSpace=wrap;html=1;sketch=1;curveFitting=1;jiggle=2;fillColor=#d5e8d4;strokeColor=#82b366;" parent="1" vertex="1">
          <mxGeometry x="190" y="241" width="226" height="144" as="geometry" />
        </mxCell>
        <mxCell id="TLgU0xt5SLczzOOira7B-27" style="edgeStyle=orthogonalEdgeStyle;rounded=0;orthogonalLoop=1;jettySize=auto;html=1;dashed=1;flowAnimation=1;fillColor=#d5e8d4;strokeColor=#82b366;strokeWidth=2;" parent="1" source="TLgU0xt5SLczzOOira7B-2" target="TLgU0xt5SLczzOOira7B-7" edge="1">
          <mxGeometry relative="1" as="geometry">
            <Array as="points">
              <mxPoint x="442" y="335" />
              <mxPoint x="442" y="335" />
            </Array>
          </mxGeometry>
        </mxCell>
        <mxCell id="TLgU0xt5SLczzOOira7B-2" value="" style="image;html=1;image=img/lib/clip_art/networking/Bridge_128x128.png" parent="1" vertex="1">
          <mxGeometry x="502" y="290.47" width="64" height="60" as="geometry" />
        </mxCell>
        <mxCell id="TLgU0xt5SLczzOOira7B-3" value="" style="rounded=1;whiteSpace=wrap;html=1;sketch=1;curveFitting=1;jiggle=2;fillColor=#ffcc99;strokeColor=#36393d;" parent="1" vertex="1">
          <mxGeometry x="630" y="266" width="190" height="60" as="geometry" />
        </mxCell>
        <mxCell id="TLgU0xt5SLczzOOira7B-28" style="edgeStyle=orthogonalEdgeStyle;rounded=0;orthogonalLoop=1;jettySize=auto;html=1;dashed=1;flowAnimation=1;fillColor=#d5e8d4;strokeColor=#82b366;strokeWidth=2;" parent="1" source="TLgU0xt5SLczzOOira7B-7" edge="1">
          <mxGeometry relative="1" as="geometry">
            <mxPoint x="93" y="334.5" as="targetPoint" />
          </mxGeometry>
        </mxCell>
        <mxCell id="TLgU0xt5SLczzOOira7B-7" value="" style="image;html=1;image=img/lib/clip_art/networking/Firewall_02_128x128.png" parent="1" vertex="1">
          <mxGeometry x="277" y="306" width="52" height="57" as="geometry" />
        </mxCell>
        <mxCell id="TLgU0xt5SLczzOOira7B-29" style="edgeStyle=orthogonalEdgeStyle;rounded=0;orthogonalLoop=1;jettySize=auto;html=1;entryX=1;entryY=0.5;entryDx=0;entryDy=0;dashed=1;flowAnimation=1;fillColor=#d5e8d4;strokeColor=#82b366;strokeWidth=2;" parent="1" source="TLgU0xt5SLczzOOira7B-9" target="TLgU0xt5SLczzOOira7B-14" edge="1">
          <mxGeometry relative="1" as="geometry">
            <Array as="points">
              <mxPoint x="-7" y="338" />
              <mxPoint x="-7" y="338" />
            </Array>
          </mxGeometry>
        </mxCell>
        <mxCell id="TLgU0xt5SLczzOOira7B-9" value="" style="image;html=1;image=img/lib/clip_art/networking/Bridge_128x128.png" parent="1" vertex="1">
          <mxGeometry x="28" y="293" width="64" height="60" as="geometry" />
        </mxCell>
        <mxCell id="TLgU0xt5SLczzOOira7B-11" value="" style="image;sketch=0;aspect=fixed;html=1;points=[];align=center;fontSize=12;image=img/lib/mscae/Virtual_Machine.svg;" parent="1" vertex="1">
          <mxGeometry x="342" y="252" width="39" height="35.88" as="geometry" />
        </mxCell>
        <mxCell id="TLgU0xt5SLczzOOira7B-12" value="&lt;font style=&quot;font-size: 14px;&quot;&gt;pfSense&lt;/font&gt;" style="text;html=1;strokeColor=none;fillColor=none;align=center;verticalAlign=middle;whiteSpace=wrap;rounded=0;fontFamily=Comic Sans MS;" parent="1" vertex="1">
          <mxGeometry x="241" y="252" width="60" height="30" as="geometry" />
        </mxCell>
        <mxCell id="TLgU0xt5SLczzOOira7B-13" value="" style="endArrow=none;dashed=1;html=1;dashPattern=1 3;strokeWidth=2;rounded=0;" parent="1" edge="1">
          <mxGeometry width="50" height="50" relative="1" as="geometry">
            <mxPoint x="210" y="284" as="sourcePoint" />
            <mxPoint x="324" y="284" as="targetPoint" />
          </mxGeometry>
        </mxCell>
        <mxCell id="TLgU0xt5SLczzOOira7B-14" value="" style="image;aspect=fixed;perimeter=ellipsePerimeter;html=1;align=center;shadow=0;dashed=0;spacingTop=3;image=img/lib/active_directory/internet_globe.svg;" parent="1" vertex="1">
          <mxGeometry x="-149" y="313" width="50" height="50" as="geometry" />
        </mxCell>
        <mxCell id="TLgU0xt5SLczzOOira7B-16" value="" style="image;sketch=0;aspect=fixed;html=1;points=[];align=center;fontSize=12;image=img/lib/mscae/Virtual_Machine.svg;" parent="1" vertex="1">
          <mxGeometry x="762" y="278.06" width="39" height="35.88" as="geometry" />
        </mxCell>
        <mxCell id="TLgU0xt5SLczzOOira7B-17" value="&lt;span style=&quot;font-size: 14px;&quot;&gt;workstation&lt;br&gt;IP: 192.168.1.103&lt;br&gt;&lt;/span&gt;" style="text;html=1;strokeColor=none;fillColor=none;align=center;verticalAlign=middle;whiteSpace=wrap;rounded=0;fontFamily=Comic Sans MS;" parent="1" vertex="1">
          <mxGeometry x="642" y="281" width="113" height="30" as="geometry" />
        </mxCell>
        <mxCell id="TLgU0xt5SLczzOOira7B-20" value="" style="rounded=1;whiteSpace=wrap;html=1;sketch=1;curveFitting=1;jiggle=2;fillColor=#ffcc99;strokeColor=#36393d;" parent="1" vertex="1">
          <mxGeometry x="631.5" y="392" width="190" height="60" as="geometry" />
        </mxCell>
        <mxCell id="TLgU0xt5SLczzOOira7B-21" value="" style="image;sketch=0;aspect=fixed;html=1;points=[];align=center;fontSize=12;image=img/lib/mscae/Virtual_Machine.svg;" parent="1" vertex="1">
          <mxGeometry x="763.5" y="404.06" width="39" height="35.88" as="geometry" />
        </mxCell>
        <mxCell id="TLgU0xt5SLczzOOira7B-22" value="&lt;span style=&quot;font-size: 14px;&quot;&gt;webserver&lt;br&gt;IP: 192.168.1.102&lt;br&gt;&lt;/span&gt;" style="text;html=1;strokeColor=none;fillColor=none;align=center;verticalAlign=middle;whiteSpace=wrap;rounded=0;fontFamily=Comic Sans MS;" parent="1" vertex="1">
          <mxGeometry x="643.5" y="407" width="113" height="30" as="geometry" />
        </mxCell>
        <mxCell id="TLgU0xt5SLczzOOira7B-23" value="" style="endArrow=none;dashed=1;html=1;dashPattern=1 3;strokeWidth=2;rounded=0;" parent="1" edge="1">
          <mxGeometry width="50" height="50" relative="1" as="geometry">
            <mxPoint x="724.5" y="392" as="sourcePoint" />
            <mxPoint x="724.5" y="334" as="targetPoint" />
          </mxGeometry>
        </mxCell>
        <mxCell id="TLgU0xt5SLczzOOira7B-30" value="&lt;font style=&quot;font-size: 14px;&quot;&gt;SNAT&lt;/font&gt;" style="text;html=1;strokeColor=none;fillColor=none;align=center;verticalAlign=middle;whiteSpace=wrap;rounded=0;fontFamily=Comic Sans MS;" parent="1" vertex="1">
          <mxGeometry x="273" y="357" width="60" height="30" as="geometry" />
        </mxCell>
        <mxCell id="TLgU0xt5SLczzOOira7B-31" value="&lt;span style=&quot;font-size: 14px;&quot;&gt;VMBR1 - LAN0&lt;/span&gt;" style="text;html=1;strokeColor=none;fillColor=none;align=center;verticalAlign=middle;whiteSpace=wrap;rounded=0;fontFamily=Comic Sans MS;" parent="1" vertex="1">
          <mxGeometry x="459" y="255" width="107" height="30" as="geometry" />
        </mxCell>
        <mxCell id="TLgU0xt5SLczzOOira7B-32" value="&lt;span style=&quot;font-size: 14px;&quot;&gt;VMBR0 - WAN&lt;br&gt;Add IP-Address&lt;br&gt;&lt;/span&gt;" style="text;html=1;strokeColor=none;fillColor=none;align=center;verticalAlign=middle;whiteSpace=wrap;rounded=0;fontFamily=Comic Sans MS;" parent="1" vertex="1">
          <mxGeometry x="12" y="255" width="118" height="30" as="geometry" />
        </mxCell>
        <mxCell id="TLgU0xt5SLczzOOira7B-33" value="&lt;span style=&quot;font-size: 14px;&quot;&gt;WAN&lt;/span&gt;" style="text;html=1;strokeColor=none;fillColor=none;align=center;verticalAlign=middle;whiteSpace=wrap;rounded=0;fontFamily=Comic Sans MS;" parent="1" vertex="1">
          <mxGeometry x="-152" y="371" width="60" height="30" as="geometry" />
        </mxCell>
        <mxCell id="TLgU0xt5SLczzOOira7B-35" value="&lt;b style=&quot;&quot;&gt;&lt;font style=&quot;font-size: 18px;&quot;&gt;Proxmox VM&lt;/font&gt;&lt;/b&gt;" style="text;html=1;strokeColor=none;fillColor=none;align=center;verticalAlign=middle;whiteSpace=wrap;rounded=0;fontFamily=Comic Sans MS;" parent="1" vertex="1">
          <mxGeometry x="355" y="145" width="118" height="30" as="geometry" />
        </mxCell>
        <mxCell id="TLgU0xt5SLczzOOira7B-36" value="" style="image;sketch=0;aspect=fixed;html=1;points=[];align=center;fontSize=12;image=img/lib/mscae/Virtual_Machine.svg;" parent="1" vertex="1">
          <mxGeometry x="487.5" y="147" width="39" height="35.88" as="geometry" />
        </mxCell>
        <mxCell id="TLgU0xt5SLczzOOira7B-38" value="&lt;span style=&quot;font-size: 14px;&quot;&gt;Access over MAIN-IP&lt;br&gt;&lt;/span&gt;" style="text;html=1;strokeColor=none;fillColor=none;align=center;verticalAlign=middle;whiteSpace=wrap;rounded=0;fontFamily=Comic Sans MS;" parent="1" vertex="1">
          <mxGeometry x="-33" y="72" width="221" height="30" as="geometry" />
        </mxCell>
        <mxCell id="TLgU0xt5SLczzOOira7B-39" value="&lt;span style=&quot;font-size: 14px;&quot;&gt;Access over ADD-IP&lt;br&gt;&lt;/span&gt;" style="text;html=1;strokeColor=none;fillColor=none;align=center;verticalAlign=middle;whiteSpace=wrap;rounded=0;fontFamily=Comic Sans MS;" parent="1" vertex="1">
          <mxGeometry x="-99" y="298" width="97" height="30" as="geometry" />
        </mxCell>
        <mxCell id="gwvTbU8_C_X5oCHiBsos-85" style="edgeStyle=orthogonalEdgeStyle;rounded=0;orthogonalLoop=1;jettySize=auto;html=1;strokeWidth=2;fillColor=#f8cecc;strokeColor=#b85450;flowAnimation=1;" edge="1" parent="1" source="gwvTbU8_C_X5oCHiBsos-1">
          <mxGeometry relative="1" as="geometry">
            <mxPoint x="1049" y="603" as="targetPoint" />
          </mxGeometry>
        </mxCell>
        <mxCell id="gwvTbU8_C_X5oCHiBsos-92" style="edgeStyle=orthogonalEdgeStyle;rounded=0;orthogonalLoop=1;jettySize=auto;html=1;entryX=1;entryY=0.5;entryDx=0;entryDy=0;jumpStyle=arc;strokeWidth=2;fillColor=#f8cecc;strokeColor=#b85450;flowAnimation=1;endArrow=classic;endFill=1;" edge="1" parent="1" source="gwvTbU8_C_X5oCHiBsos-1" target="gwvTbU8_C_X5oCHiBsos-79">
          <mxGeometry relative="1" as="geometry">
            <Array as="points">
              <mxPoint x="1174" y="793" />
              <mxPoint x="1174" y="92" />
            </Array>
          </mxGeometry>
        </mxCell>
        <mxCell id="gwvTbU8_C_X5oCHiBsos-111" style="edgeStyle=orthogonalEdgeStyle;rounded=0;orthogonalLoop=1;jettySize=auto;html=1;entryX=0.5;entryY=1;entryDx=0;entryDy=0;strokeWidth=2;fillColor=#d5e8d4;strokeColor=#82b366;flowAnimation=1;" edge="1" parent="1" source="gwvTbU8_C_X5oCHiBsos-1" target="TLgU0xt5SLczzOOira7B-33">
          <mxGeometry relative="1" as="geometry" />
        </mxCell>
        <mxCell id="gwvTbU8_C_X5oCHiBsos-1" value="" style="rounded=1;whiteSpace=wrap;html=1;sketch=1;curveFitting=1;jiggle=2;fillColor=#e1d5e7;strokeColor=#9673a6;opacity=50;" vertex="1" parent="1">
          <mxGeometry x="351" y="677" width="566" height="232.06" as="geometry" />
        </mxCell>
        <mxCell id="gwvTbU8_C_X5oCHiBsos-7" value="" style="rounded=1;whiteSpace=wrap;html=1;sketch=1;curveFitting=1;jiggle=2;fillColor=#ffcc99;strokeColor=#36393d;" vertex="1" parent="1">
          <mxGeometry x="645" y="811" width="190" height="60" as="geometry" />
        </mxCell>
        <mxCell id="gwvTbU8_C_X5oCHiBsos-16" value="" style="image;sketch=0;aspect=fixed;html=1;points=[];align=center;fontSize=12;image=img/lib/mscae/Virtual_Machine.svg;" vertex="1" parent="1">
          <mxGeometry x="777" y="823.06" width="39" height="35.88" as="geometry" />
        </mxCell>
        <mxCell id="gwvTbU8_C_X5oCHiBsos-18" value="&lt;span style=&quot;font-size: 14px;&quot;&gt;workstation&lt;br&gt;IP: 192.168.1.101&lt;br&gt;&lt;/span&gt;" style="text;html=1;strokeColor=none;fillColor=none;align=center;verticalAlign=middle;whiteSpace=wrap;rounded=0;fontFamily=Comic Sans MS;" vertex="1" parent="1">
          <mxGeometry x="657" y="826" width="113" height="30" as="geometry" />
        </mxCell>
        <mxCell id="gwvTbU8_C_X5oCHiBsos-29" value="&lt;b style=&quot;&quot;&gt;&lt;font style=&quot;font-size: 18px;&quot;&gt;Proxmox VM (Worker 1)&lt;/font&gt;&lt;/b&gt;" style="text;html=1;strokeColor=none;fillColor=none;align=center;verticalAlign=middle;whiteSpace=wrap;rounded=0;fontFamily=Comic Sans MS;" vertex="1" parent="1">
          <mxGeometry x="363" y="774.88" width="118" height="30" as="geometry" />
        </mxCell>
        <mxCell id="gwvTbU8_C_X5oCHiBsos-30" value="" style="image;sketch=0;aspect=fixed;html=1;points=[];align=center;fontSize=12;image=img/lib/mscae/Virtual_Machine.svg;" vertex="1" parent="1">
          <mxGeometry x="499" y="774.88" width="39" height="35.88" as="geometry" />
        </mxCell>
        <mxCell id="gwvTbU8_C_X5oCHiBsos-81" style="edgeStyle=orthogonalEdgeStyle;rounded=0;orthogonalLoop=1;jettySize=auto;html=1;strokeWidth=2;fillColor=#dae8fc;strokeColor=#6c8ebf;flowAnimation=1;endArrow=classic;endFill=1;" edge="1" parent="1" source="gwvTbU8_C_X5oCHiBsos-66" target="gwvTbU8_C_X5oCHiBsos-79">
          <mxGeometry relative="1" as="geometry" />
        </mxCell>
        <mxCell id="gwvTbU8_C_X5oCHiBsos-91" style="edgeStyle=orthogonalEdgeStyle;rounded=0;orthogonalLoop=1;jettySize=auto;html=1;entryX=1;entryY=0.5;entryDx=0;entryDy=0;jumpStyle=arc;strokeWidth=2;fillColor=#dae8fc;strokeColor=#6c8ebf;flowAnimation=1;endArrow=classic;endFill=1;" edge="1" parent="1" source="gwvTbU8_C_X5oCHiBsos-66" target="gwvTbU8_C_X5oCHiBsos-80">
          <mxGeometry relative="1" as="geometry" />
        </mxCell>
        <mxCell id="gwvTbU8_C_X5oCHiBsos-112" style="edgeStyle=orthogonalEdgeStyle;rounded=0;orthogonalLoop=1;jettySize=auto;html=1;entryX=0;entryY=0.5;entryDx=0;entryDy=0;strokeWidth=2;fillColor=#d5e8d4;strokeColor=#82b366;flowAnimation=1;" edge="1" parent="1" source="gwvTbU8_C_X5oCHiBsos-66" target="TLgU0xt5SLczzOOira7B-14">
          <mxGeometry relative="1" as="geometry" />
        </mxCell>
        <mxCell id="gwvTbU8_C_X5oCHiBsos-66" value="" style="rounded=1;whiteSpace=wrap;html=1;sketch=1;curveFitting=1;jiggle=2;fillColor=#fff2cc;strokeColor=#d6b656;opacity=50;" vertex="1" parent="1">
          <mxGeometry x="358" y="-224" width="564" height="232.06" as="geometry" />
        </mxCell>
        <mxCell id="gwvTbU8_C_X5oCHiBsos-67" value="" style="rounded=1;whiteSpace=wrap;html=1;sketch=1;curveFitting=1;jiggle=2;fillColor=#ffcc99;strokeColor=#36393d;" vertex="1" parent="1">
          <mxGeometry x="641" y="-90" width="190" height="60" as="geometry" />
        </mxCell>
        <mxCell id="gwvTbU8_C_X5oCHiBsos-68" value="" style="image;sketch=0;aspect=fixed;html=1;points=[];align=center;fontSize=12;image=img/lib/mscae/Virtual_Machine.svg;" vertex="1" parent="1">
          <mxGeometry x="773" y="-77.94000000000005" width="39" height="35.88" as="geometry" />
        </mxCell>
        <mxCell id="gwvTbU8_C_X5oCHiBsos-69" value="&lt;span style=&quot;font-size: 14px;&quot;&gt;workstation&lt;br&gt;IP: 192.168.1.100&lt;br&gt;&lt;/span&gt;" style="text;html=1;strokeColor=none;fillColor=none;align=center;verticalAlign=middle;whiteSpace=wrap;rounded=0;fontFamily=Comic Sans MS;" vertex="1" parent="1">
          <mxGeometry x="653" y="-75" width="113" height="30" as="geometry" />
        </mxCell>
        <mxCell id="gwvTbU8_C_X5oCHiBsos-70" value="&lt;span style=&quot;font-size: 14px;&quot;&gt;LAN0&lt;br&gt;&lt;/span&gt;" style="text;html=1;strokeColor=none;fillColor=none;align=center;verticalAlign=middle;whiteSpace=wrap;rounded=0;fontFamily=Comic Sans MS;" vertex="1" parent="1">
          <mxGeometry x="676" y="-256" width="113" height="30" as="geometry" />
        </mxCell>
        <mxCell id="gwvTbU8_C_X5oCHiBsos-71" value="&lt;b style=&quot;&quot;&gt;&lt;font style=&quot;font-size: 18px;&quot;&gt;Proxmox VM (Worker 0)&lt;/font&gt;&lt;/b&gt;" style="text;html=1;strokeColor=none;fillColor=none;align=center;verticalAlign=middle;whiteSpace=wrap;rounded=0;fontFamily=Comic Sans MS;" vertex="1" parent="1">
          <mxGeometry x="366" y="-122.97" width="118" height="30" as="geometry" />
        </mxCell>
        <mxCell id="gwvTbU8_C_X5oCHiBsos-72" value="" style="image;sketch=0;aspect=fixed;html=1;points=[];align=center;fontSize=12;image=img/lib/mscae/Virtual_Machine.svg;" vertex="1" parent="1">
          <mxGeometry x="497" y="-125.88" width="39" height="35.88" as="geometry" />
        </mxCell>
        <mxCell id="gwvTbU8_C_X5oCHiBsos-73" style="edgeStyle=orthogonalEdgeStyle;rounded=0;orthogonalLoop=1;jettySize=auto;html=1;exitX=0.5;exitY=1;exitDx=0;exitDy=0;" edge="1" parent="1" source="gwvTbU8_C_X5oCHiBsos-71" target="gwvTbU8_C_X5oCHiBsos-71">
          <mxGeometry relative="1" as="geometry" />
        </mxCell>
        <mxCell id="gwvTbU8_C_X5oCHiBsos-82" style="edgeStyle=orthogonalEdgeStyle;rounded=0;orthogonalLoop=1;jettySize=auto;html=1;entryX=1;entryY=0.25;entryDx=0;entryDy=0;strokeWidth=2;fillColor=#d5e8d4;strokeColor=#82b366;flowAnimation=1;" edge="1" parent="1" target="TLgU0xt5SLczzOOira7B-34">
          <mxGeometry relative="1" as="geometry">
            <mxPoint x="1046" y="161" as="sourcePoint" />
            <Array as="points">
              <mxPoint x="1046" y="228" />
            </Array>
          </mxGeometry>
        </mxCell>
        <mxCell id="gwvTbU8_C_X5oCHiBsos-97" style="edgeStyle=orthogonalEdgeStyle;rounded=0;orthogonalLoop=1;jettySize=auto;html=1;entryX=1;entryY=0.75;entryDx=0;entryDy=0;fillColor=#d5e8d4;strokeColor=#82b366;strokeWidth=2;flowAnimation=1;" edge="1" parent="1" source="gwvTbU8_C_X5oCHiBsos-79" target="gwvTbU8_C_X5oCHiBsos-66">
          <mxGeometry relative="1" as="geometry" />
        </mxCell>
        <mxCell id="gwvTbU8_C_X5oCHiBsos-103" style="edgeStyle=orthogonalEdgeStyle;rounded=0;orthogonalLoop=1;jettySize=auto;html=1;entryX=0.999;entryY=0.427;entryDx=0;entryDy=0;entryPerimeter=0;jumpStyle=arc;strokeWidth=2;flowAnimation=1;fillColor=#d5e8d4;strokeColor=#82b366;" edge="1" parent="1" source="gwvTbU8_C_X5oCHiBsos-79" target="gwvTbU8_C_X5oCHiBsos-1">
          <mxGeometry relative="1" as="geometry">
            <Array as="points">
              <mxPoint x="1218" y="92" />
              <mxPoint x="1218" y="776" />
            </Array>
          </mxGeometry>
        </mxCell>
        <mxCell id="gwvTbU8_C_X5oCHiBsos-79" value="" style="image;html=1;image=img/lib/clip_art/networking/Switch_128x128.png" vertex="1" parent="1">
          <mxGeometry x="1006" y="52" width="80" height="80" as="geometry" />
        </mxCell>
        <mxCell id="gwvTbU8_C_X5oCHiBsos-86" style="edgeStyle=orthogonalEdgeStyle;rounded=0;orthogonalLoop=1;jettySize=auto;html=1;entryX=1;entryY=0.5;entryDx=0;entryDy=0;strokeWidth=2;fillColor=#d5e8d4;strokeColor=#82b366;flowAnimation=1;" edge="1" parent="1" source="gwvTbU8_C_X5oCHiBsos-80" target="TLgU0xt5SLczzOOira7B-34">
          <mxGeometry relative="1" as="geometry">
            <Array as="points">
              <mxPoint x="1046" y="321" />
            </Array>
          </mxGeometry>
        </mxCell>
        <mxCell id="gwvTbU8_C_X5oCHiBsos-94" style="edgeStyle=orthogonalEdgeStyle;rounded=0;orthogonalLoop=1;jettySize=auto;html=1;entryX=1;entryY=0.25;entryDx=0;entryDy=0;strokeWidth=2;flowAnimation=1;fillColor=#d5e8d4;strokeColor=#82b366;" edge="1" parent="1" target="gwvTbU8_C_X5oCHiBsos-1">
          <mxGeometry relative="1" as="geometry">
            <mxPoint x="1028" y="596" as="sourcePoint" />
            <Array as="points">
              <mxPoint x="1028" y="735" />
            </Array>
          </mxGeometry>
        </mxCell>
        <mxCell id="gwvTbU8_C_X5oCHiBsos-104" style="edgeStyle=orthogonalEdgeStyle;rounded=0;orthogonalLoop=1;jettySize=auto;html=1;entryX=1;entryY=0.25;entryDx=0;entryDy=0;strokeWidth=2;flowAnimation=1;fillColor=#d5e8d4;strokeColor=#82b366;" edge="1" parent="1" source="gwvTbU8_C_X5oCHiBsos-80" target="gwvTbU8_C_X5oCHiBsos-66">
          <mxGeometry relative="1" as="geometry">
            <Array as="points">
              <mxPoint x="1246" y="525" />
              <mxPoint x="1246" y="-166" />
            </Array>
          </mxGeometry>
        </mxCell>
        <mxCell id="gwvTbU8_C_X5oCHiBsos-80" value="" style="image;html=1;image=img/lib/clip_art/networking/Switch_128x128.png" vertex="1" parent="1">
          <mxGeometry x="1009" y="485" width="80" height="80" as="geometry" />
        </mxCell>
        <mxCell id="gwvTbU8_C_X5oCHiBsos-83" value="&lt;span style=&quot;font-size: 14px;&quot;&gt;&lt;br&gt;IP: 10.0.100.10&lt;br&gt;&lt;/span&gt;" style="text;html=1;strokeColor=none;fillColor=none;align=center;verticalAlign=middle;whiteSpace=wrap;rounded=0;fontFamily=Comic Sans MS;" vertex="1" parent="1">
          <mxGeometry x="939" y="231" width="113" height="30" as="geometry" />
        </mxCell>
        <mxCell id="gwvTbU8_C_X5oCHiBsos-87" value="&lt;span style=&quot;font-size: 14px;&quot;&gt;vSwitch: Corosync4001&lt;br&gt;&lt;/span&gt;" style="text;html=1;strokeColor=none;fillColor=none;align=center;verticalAlign=middle;whiteSpace=wrap;rounded=0;fontFamily=Comic Sans MS;" vertex="1" parent="1">
          <mxGeometry x="987" y="117" width="113" height="30" as="geometry" />
        </mxCell>
        <mxCell id="gwvTbU8_C_X5oCHiBsos-88" value="&lt;span style=&quot;font-size: 14px;&quot;&gt;vSwitch: Corosync4002&lt;br&gt;&lt;/span&gt;" style="text;html=1;strokeColor=none;fillColor=none;align=center;verticalAlign=middle;whiteSpace=wrap;rounded=0;fontFamily=Comic Sans MS;" vertex="1" parent="1">
          <mxGeometry x="992.5" y="558" width="113" height="30" as="geometry" />
        </mxCell>
        <mxCell id="gwvTbU8_C_X5oCHiBsos-89" value="" style="image;html=1;image=img/lib/clip_art/networking/Switch_128x128.png" vertex="1" parent="1">
          <mxGeometry x="828" y="252" width="80" height="80" as="geometry" />
        </mxCell>
        <mxCell id="gwvTbU8_C_X5oCHiBsos-90" value="&lt;span style=&quot;font-size: 14px;&quot;&gt;vSwitch: Corosync4000 (LAN)&lt;br&gt;&lt;/span&gt;" style="text;html=1;strokeColor=none;fillColor=none;align=center;verticalAlign=middle;whiteSpace=wrap;rounded=0;fontFamily=Comic Sans MS;" vertex="1" parent="1">
          <mxGeometry x="804" y="335" width="113" height="30" as="geometry" />
        </mxCell>
        <mxCell id="gwvTbU8_C_X5oCHiBsos-95" value="&lt;span style=&quot;font-size: 14px;&quot;&gt;&lt;br&gt;IP: 10.0.100.11&lt;br&gt;&lt;/span&gt;" style="text;html=1;strokeColor=none;fillColor=none;align=center;verticalAlign=middle;whiteSpace=wrap;rounded=0;fontFamily=Comic Sans MS;" vertex="1" parent="1">
          <mxGeometry x="903" y="3" width="113" height="30" as="geometry" />
        </mxCell>
        <mxCell id="gwvTbU8_C_X5oCHiBsos-96" value="&lt;span style=&quot;font-size: 14px;&quot;&gt;&lt;br&gt;IP: 10.0.200.10&lt;br&gt;&lt;/span&gt;" style="text;html=1;strokeColor=none;fillColor=none;align=center;verticalAlign=middle;whiteSpace=wrap;rounded=0;fontFamily=Comic Sans MS;" vertex="1" parent="1">
          <mxGeometry x="935" y="281" width="113" height="30" as="geometry" />
        </mxCell>
        <mxCell id="gwvTbU8_C_X5oCHiBsos-99" value="&lt;span style=&quot;font-size: 14px;&quot;&gt;&lt;br&gt;IP: 10.0.200.12&lt;br&gt;&lt;/span&gt;" style="text;html=1;strokeColor=none;fillColor=none;align=center;verticalAlign=middle;whiteSpace=wrap;rounded=0;fontFamily=Comic Sans MS;" vertex="1" parent="1">
          <mxGeometry x="915" y="688" width="113" height="30" as="geometry" />
        </mxCell>
        <mxCell id="gwvTbU8_C_X5oCHiBsos-100" value="&lt;span style=&quot;font-size: 14px;&quot;&gt;&lt;br&gt;IP: 10.0.100.12&lt;br&gt;&lt;/span&gt;" style="text;html=1;strokeColor=none;fillColor=none;align=center;verticalAlign=middle;whiteSpace=wrap;rounded=0;fontFamily=Comic Sans MS;" vertex="1" parent="1">
          <mxGeometry x="922" y="735" width="113" height="30" as="geometry" />
        </mxCell>
        <mxCell id="gwvTbU8_C_X5oCHiBsos-105" value="&lt;span style=&quot;font-size: 14px;&quot;&gt;&lt;br&gt;IP: 10.0.200.11&lt;br&gt;&lt;/span&gt;" style="text;html=1;strokeColor=none;fillColor=none;align=center;verticalAlign=middle;whiteSpace=wrap;rounded=0;fontFamily=Comic Sans MS;" vertex="1" parent="1">
          <mxGeometry x="937" y="-210" width="113" height="30" as="geometry" />
        </mxCell>
        <mxCell id="gwvTbU8_C_X5oCHiBsos-106" style="edgeStyle=orthogonalEdgeStyle;rounded=0;orthogonalLoop=1;jettySize=auto;html=1;dashed=1;flowAnimation=1;fillColor=#d5e8d4;strokeColor=#82b366;strokeWidth=2;exitX=0;exitY=0.5;exitDx=0;exitDy=0;" edge="1" parent="1" source="TLgU0xt5SLczzOOira7B-3">
          <mxGeometry relative="1" as="geometry">
            <Array as="points">
              <mxPoint x="630" y="293" />
              <mxPoint x="594" y="293" />
              <mxPoint x="594" y="332" />
            </Array>
            <mxPoint x="732" y="332" as="sourcePoint" />
            <mxPoint x="559" y="332" as="targetPoint" />
          </mxGeometry>
        </mxCell>
        <mxCell id="gwvTbU8_C_X5oCHiBsos-107" style="edgeStyle=orthogonalEdgeStyle;rounded=0;orthogonalLoop=1;jettySize=auto;html=1;dashed=1;flowAnimation=1;fillColor=#d5e8d4;strokeColor=#82b366;strokeWidth=2;exitX=0;exitY=0.5;exitDx=0;exitDy=0;endArrow=none;endFill=0;" edge="1" parent="1" source="TLgU0xt5SLczzOOira7B-20">
          <mxGeometry relative="1" as="geometry">
            <Array as="points">
              <mxPoint x="595" y="422" />
              <mxPoint x="595" y="332" />
            </Array>
            <mxPoint x="627" y="296.47" as="sourcePoint" />
            <mxPoint x="566" y="332" as="targetPoint" />
          </mxGeometry>
        </mxCell>
        <mxCell id="gwvTbU8_C_X5oCHiBsos-109" value="" style="verticalLabelPosition=bottom;sketch=0;aspect=fixed;html=1;verticalAlign=top;strokeColor=none;align=center;outlineConnect=0;shape=mxgraph.citrix.dhcp_server;" vertex="1" parent="1">
          <mxGeometry x="363" y="350.47" width="56" height="66.32" as="geometry" />
        </mxCell>
        <mxCell id="gwvTbU8_C_X5oCHiBsos-110" value="&lt;font style=&quot;font-size: 14px;&quot;&gt;DHCP-Server&lt;/font&gt;" style="text;html=1;strokeColor=none;fillColor=none;align=center;verticalAlign=middle;whiteSpace=wrap;rounded=0;fontFamily=Comic Sans MS;" vertex="1" parent="1">
          <mxGeometry x="338" y="427" width="100" height="30" as="geometry" />
        </mxCell>
        <mxCell id="gwvTbU8_C_X5oCHiBsos-113" value="&lt;span style=&quot;font-size: 14px;&quot;&gt;Access over MAIN-IP&lt;br&gt;&lt;/span&gt;" style="text;html=1;strokeColor=none;fillColor=none;align=center;verticalAlign=middle;whiteSpace=wrap;rounded=0;fontFamily=Comic Sans MS;" vertex="1" parent="1">
          <mxGeometry x="-113" y="-152.97" width="221" height="30" as="geometry" />
        </mxCell>
        <mxCell id="gwvTbU8_C_X5oCHiBsos-114" value="&lt;span style=&quot;font-size: 14px;&quot;&gt;Access over MAIN-IP&lt;br&gt;&lt;/span&gt;" style="text;html=1;strokeColor=none;fillColor=none;align=center;verticalAlign=middle;whiteSpace=wrap;rounded=0;fontFamily=Comic Sans MS;" vertex="1" parent="1">
          <mxGeometry x="-13" y="811" width="221" height="30" as="geometry" />
        </mxCell>
      </root>
    </mxGraphModel>
  </diagram>
</mxfile>
